<svg xmlns="http://www.w3.org/2000/svg" viewBox="0 0 14 14"><path fill="#646CFF" d="M3.38 7.02c.4-.73.4-1.6 0-2.33L2.07 3.37A.64.64 0 0 0 1 3.94l1.31 2.39a.63.63 0 0 1 0 .69L1 10.06a.64.64 0 0 0 1.07.57l1.31-2.39Z"/><path fill="#646CFF" d="M12.93 3.94a.64.64 0 0 0-1.07-.57L10.55 5.76a.63.63 0 0 1 0 .69l1.31 2.39a.64.64 0 0 0 1.07-.57l-1.31-2.39a.63.63 0 0 1 0-.69Z"/><path fill="#646CFF" d="M8.28 1.07a.64.64 0 0 0-1.16 0L5.32 5.86a.64.64 0 0 1 0 .57l1.8 3.12a.64.64 0 0 0 1.16 0l1.8-3.12a.64.64 0 0 1 0-.57Z"/></svg>